<svg xmlns="http://www.w3.org/2000/svg" xmlns:xlink="http://www.w3.org/1999/xlink" width="375" height="275" viewBox="0 0 375 275">
  <defs>
    <clipPath id="clip-Artboard_15">
      <rect width="375" height="275"/>
    </clipPath>
  </defs>
  <g id="Artboard_15" data-name="Artboard – 15" clip-path="url(#clip-Artboard_15)">
    <rect width="375" height="275" fill="#f2f2f2"/>
    <path id="Path_733" data-name="Path 733" d="M1460.959-156.72c878.888-7.8,853.615,513.967,844.525,1086.108s-737.323,369.8-1284.129,100.273S-14.115,961.206-5.026,389.065,582.073-148.917,1460.959-156.72Z" transform="matrix(-0.961, 0.276, -0.276, -0.961, 1896.563, -155.459)" fill="#38dcd0"/>
    <path id="Path_719" data-name="Path 719" d="M1062.1-34.9c545.31-3.57,638.818,143.758,633.935,447.953S972.929,676.705,633.3,533.041-9.266,495.962-4.384,191.767,516.786-31.332,1062.1-34.9Z" transform="matrix(-0.966, 0.259, -0.259, -0.966, 1006.034, -193.41)" fill="#f2f2f2"/>
    <path id="Path_710" data-name="Path 710" d="M1062.1-35.1c545.31-3.47,638.818,139.765,633.935,435.509S972.929,656.734,633.3,517.061-9.266,481.012-4.384,185.268,516.786-31.633,1062.1-35.1Z" transform="matrix(-0.999, 0.052, -0.052, -0.999, 1033.2, 751.096)" fill="#f2f2f2"/>
  </g>
</svg>
