<svg xmlns="http://www.w3.org/2000/svg" width="164.848" height="142.645" viewBox="0 0 164.848 142.645">
  <g id="Path_691" data-name="Path 691" transform="matrix(-0.966, 0.259, -0.259, -0.966, 164.848, 106.091)" fill="#001d57">
    <path d="M 102.3948135375977 109.3331985473633 C 85.50921630859375 109.3331985473633 66.23001861572266 102.4935989379883 53.2787971496582 91.90848541259766 C 48.9202880859375 88.34625244140625 44.2519416809082 85.42330169677734 39.00699615478516 82.97259521484375 C 34.42639923095703 80.83230590820312 30.15147018432617 79.37767028808594 26.01730728149414 77.97090148925781 C 22.22807121276855 76.68152618408203 18.64899826049805 75.46363067626953 15.51383399963379 73.89983367919922 C 12.06034278869629 72.17725372314453 9.497797966003418 70.21290588378906 7.449306964874268 67.71792602539062 C 5.086906909942627 64.840576171875 3.387670516967773 61.19768524169922 2.254524946212769 56.58108520507812 C 1.012743234634399 51.5219612121582 0.4403977394104004 45.29319763183594 0.504815936088562 37.53886795043945 C 0.5375068187713623 33.60430526733398 0.8546704649925232 29.96843147277832 1.447525024414062 26.73225021362305 C 2.02070689201355 23.60348701477051 2.870688676834106 20.74479675292969 3.973834037780762 18.23561477661133 C 6.071070671081543 13.46532344818115 9.088379859924316 9.810577392578125 13.19819736480713 7.062504768371582 C 16.91301536560059 4.578559398651123 21.49863433837891 2.860904932022095 27.21710777282715 1.811395764350891 C 32.09201431274414 0.9167048931121826 37.7570686340332 0.4999958276748657 45.04541778564453 0.4999958276748657 C 50.97419738769531 0.4999958276748657 57.20861434936523 0.7713776230812073 63.80908966064453 1.058723092079163 C 70.85223388671875 1.365323066711426 78.13516235351562 1.682359457015991 85.52216339111328 1.682359457015991 C 86.55744934082031 1.682359457015991 87.58590698242188 1.675995826721191 88.5789794921875 1.663432240486145 C 89.10993957519531 1.656704902648926 89.64305114746094 1.653304934501648 90.16352844238281 1.653304934501648 C 99.00294494628906 1.653304934501648 106.2848358154297 2.598450422286987 112.4253082275391 4.542723178863525 C 118.4331588745117 6.445032119750977 123.240837097168 9.272668838500977 127.1230010986328 13.18721389770508 C 129.8979797363281 15.98534107208252 132.1512908935547 19.28084945678711 134.0117034912109 23.26208686828613 C 135.7975463867188 27.08374214172363 137.1741485595703 31.43923187255859 138.2201232910156 36.57744979858398 C 139.1999816894531 41.39081573486328 139.8723754882812 46.81735992431641 140.2757263183594 53.16716003417969 C 140.6378021240234 58.86737823486328 140.7828369140625 65.36715698242188 140.7191314697266 73.03792572021484 C 140.6664276123047 79.38177490234375 139.5897216796875 85.02930450439453 137.5189666748047 89.82363128662109 C 135.5956878662109 94.27641296386719 132.7926025390625 98.04877471923828 129.1875610351562 101.0359268188477 C 125.8183441162109 103.8276672363281 121.732177734375 105.9517440795898 117.0425796508789 107.3491439819336 C 112.6244354248047 108.6656723022461 107.6962127685547 109.3331985473633 102.3948135375977 109.3331985473633 Z" stroke="none"/>
    <path d="M 45.04539489746094 0.9999923706054688 C 37.78810882568359 0.9999923706054688 32.15172576904297 1.414085388183594 27.30735778808594 2.303192138671875 C 21.65732574462891 3.340141296386719 17.13308715820312 5.032890319824219 13.47610473632812 7.478157043457031 C 9.44781494140625 10.17170715332031 6.489303588867188 13.75632476806641 4.431549072265625 18.43685150146484 C 3.344009399414062 20.91048431396484 2.505523681640625 23.73178100585938 1.939346313476562 26.82235717773438 C 1.351669311523438 30.03025054931641 1.0372314453125 33.63719940185547 1.004791259765625 37.54302978515625 C 0.9407501220703125 45.25523376464844 1.50836181640625 51.44364929199219 2.7401123046875 56.46190643310547 C 3.855056762695312 61.00426864624023 5.5218505859375 64.58235931396484 7.835739135742188 67.400634765625 C 9.8380126953125 69.83934020996094 12.34869384765625 71.76234436035156 15.73699951171875 73.452392578125 C 18.84197998046875 75.00115966796875 22.40556335449219 76.21376037597656 26.17838287353516 77.49755859375 C 30.13208770751953 78.84290313720703 34.61330413818359 80.36775970458984 39.21865081787109 82.51961517333984 C 44.50161743164062 84.98806762695312 49.20421600341797 87.93255615234375 53.59521484375 91.52133941650391 C 66.46256256103516 102.0378875732422 85.61753845214844 108.8331985473633 102.3948211669922 108.8331985473633 C 107.647834777832 108.8331985473633 112.5280151367188 108.1726684570312 116.8997955322266 106.8699569702148 C 121.5245590209961 105.4918670654297 125.5514144897461 103.3994903564453 128.8685455322266 100.6509017944336 C 132.4122772216797 97.71457672119141 135.1682586669922 94.00505065917969 137.0599365234375 89.62535858154297 C 139.1040954589844 84.8927001953125 140.1669921875 79.31047058105469 140.2191467285156 73.03376007080078 C 140.2827606201172 65.37490844726562 140.1380310058594 58.88668823242188 139.7767028808594 53.19834136962891 C 139.3748016357422 46.8714485168457 138.7053375244141 41.46699523925781 137.7300415039062 36.67616271972656 C 136.6919555664062 31.576904296875 135.327392578125 27.25788879394531 133.5583648681641 23.47230529785156 C 131.7225952148438 19.54392242431641 129.501220703125 16.29426574707031 126.7672729492188 13.53765106201172 C 122.9434204101562 9.682106018066406 118.2025756835938 6.895431518554688 112.2738342285156 5.018394470214844 C 106.1841125488281 3.090400695800781 98.95462799072266 2.153213500976562 90.16973114013672 2.153305053710938 C 90.16812133789062 2.153305053710938 90.16520690917969 2.153305053710938 90.16359710693359 2.153305053710938 C 89.64259338378906 2.153343200683594 89.11157989501953 2.15673828125 88.58531188964844 2.163398742675781 C 87.59072875976562 2.175979614257812 86.56014251708984 2.182357788085938 85.52215576171875 2.182357788085938 C 78.12429046630859 2.182357788085938 70.83583068847656 1.865089416503906 63.78734588623047 1.558250427246094 C 57.19245147705078 1.271156311035156 50.96331024169922 0.9999923706054688 45.04539489746094 0.9999923706054688 M 45.04540252685547 -1.52587890625e-05 C 57.36943817138672 -1.52587890625e-05 71.28369140625 1.182357788085938 85.52215576171875 1.182357788085938 C 86.5391845703125 1.182357788085938 87.55271911621094 1.176368713378906 88.57264709472656 1.163467407226562 C 89.10610961914062 1.156723022460938 89.64041900634766 1.153335571289062 90.16351318359375 1.153305053710938 C 134.0467987060547 1.151130676269531 141.6197662353516 24.80592346191406 141.2191009521484 73.04206848144531 C 140.9979553222656 99.6641845703125 123.1482543945312 109.8332061767578 102.3948211669922 109.8332061767578 C 85.09719085693359 109.8332061767578 65.78423309326172 102.7750015258789 52.96237945556641 92.29563140869141 C 24.75707244873047 69.2432861328125 -0.4006195068359375 86.34588623046875 0.0048370361328125 37.53472137451172 C 0.2733154296875 5.213424682617188 19.16397094726562 -1.52587890625e-05 45.04540252685547 -1.52587890625e-05 Z" stroke="none" fill="#707070"/>
  </g>
</svg>
