<svg xmlns="http://www.w3.org/2000/svg" xmlns:xlink="http://www.w3.org/1999/xlink" width="375" height="555" viewBox="0 0 375 555">
  <defs>
    <linearGradient id="linear-gradient" x1="0.451" y1="0.631" x2="0.494" y2="1" gradientUnits="objectBoundingBox">
      <stop offset="0" stop-color="#001d57"/>
      <stop offset="0.523" stop-color="#002a77"/>
      <stop offset="1" stop-color="#003087"/>
    </linearGradient>
    <clipPath id="clip-Home_Medway_cel_">
      <rect width="375" height="555"/>
    </clipPath>
  </defs>
  <g id="Home_Medway_cel_" data-name="Home Medway (cel)" clip-path="url(#clip-Home_Medway_cel_)">
    <rect width="375" height="555" fill="#fff"/>
    <rect id="Rectangle_8" data-name="Rectangle 8" width="1440" height="734" transform="translate(-473 52)" fill="url(#linear-gradient)"/>
    <rect id="Rectangle_79" data-name="Rectangle 79" width="1440" height="734" transform="translate(-635)" fill="url(#linear-gradient)"/>
    <path id="Tracé_80" data-name="Tracé 80" d="M1460.959-156.72c878.888-7.8,853.615,513.967,844.525,1086.108s-737.323,369.8-1284.129,100.273S-14.115,961.206-5.026,389.065,582.073-148.917,1460.959-156.72Z" transform="translate(1859.89 1493.788) rotate(179)" fill="#38dcd0"/>
    <path id="Tracé_733" data-name="Tracé 733" d="M1460.959-156.72c878.888-7.8,853.615,513.967,844.525,1086.108s-737.323,369.8-1284.129,100.273S-14.115,961.206-5.026,389.065,582.073-148.917,1460.959-156.72Z" transform="matrix(-0.961, 0.276, -0.276, -0.961, 1894.562, 857.541)" fill="#38dcd0"/>
    <path id="Tracé_719" data-name="Tracé 719" d="M1062.1-34.9c545.31-3.57,638.818,143.758,633.935,447.953S972.929,676.705,633.3,533.041-9.266,495.962-4.384,191.767,516.786-31.332,1062.1-34.9Z" transform="matrix(-0.966, 0.259, -0.259, -0.966, 1006.034, 892.59)" fill="#f2f2f2"/>
  </g>
</svg>
