<svg xmlns="http://www.w3.org/2000/svg" xmlns:xlink="http://www.w3.org/1999/xlink" width="61" height="70.834" viewBox="0 0 61 70.834"><defs><linearGradient id="a" x1="0.5" x2="0.5" y2="1" gradientUnits="objectBoundingBox"><stop offset="0" stop-color="#001d57"/><stop offset="1" stop-color="#003087"/></linearGradient><filter id="b" x="0" y="0" width="61" height="70.834" filterUnits="userSpaceOnUse"><feOffset dy="3" input="SourceAlpha"/><feGaussianBlur stdDeviation="3" result="c"/><feFlood flood-opacity="0.161"/><feComposite operator="in" in2="c"/><feComposite in="SourceGraphic"/></filter><filter id="d" x="16.004" y="24.448" width="29.742" height="29.045" filterUnits="userSpaceOnUse"><feOffset dy="2" input="SourceAlpha"/><feGaussianBlur stdDeviation="2" result="e"/><feFlood flood-opacity="0.212"/><feComposite operator="in" in2="e"/><feComposite in="SourceGraphic"/></filter></defs><g transform="translate(-278 -3994.166)"><g transform="matrix(1, 0, 0, 1, 278, 3994.17)" filter="url(#b)"><path d="M0-9.834H43V21.5a21.5,21.5,0,0,1-43,0Z" transform="translate(9 15.83)" fill="url(#a)"/></g><g transform="matrix(1, 0, 0, 1, 278, 3994.17)" filter="url(#d)"><path d="M10.3,16.215,6.7,18.069a1.75,1.75,0,0,1-2.529-1.837l.651-4L1.951,9.388a1.75,1.75,0,0,1,.966-2.973l4-.615L8.739,2.185a1.75,1.75,0,0,1,3.126,0L13.686,5.8l4,.615a1.75,1.75,0,0,1,.966,2.973l-2.875,2.849.651,4A1.75,1.75,0,0,1,13.9,18.069Z" transform="translate(20.57 27.23)" fill="#fac145"/></g></g></svg>